<svg width="60" height="60" viewBox="0 0 60 60" fill="none" xmlns="http://www.w3.org/2000/svg">
<path d="M5.67733 44.1271C5.93772 44.5748 5.7853 45.1496 5.33913 45.41C5.19147 45.4958 5.02952 45.537 4.86915 45.537C4.54684 45.537 4.23246 45.3703 4.05939 45.0702C0.842577 39.5384 -0.502262 33.2414 0.167776 26.8601C1.00612 18.8911 4.89297 11.7271 11.1123 6.68596C17.3315 1.6448 25.1402 -0.670162 33.0981 0.168179C38.4361 0.731836 43.4535 2.68479 47.7277 5.84445L47.0783 3.56759C46.937 3.06903 47.226 2.55142 47.723 2.40852C48.22 2.26562 48.7376 2.55459 48.8805 3.05315L50.3491 8.20863C50.4285 8.4849 50.3745 8.7834 50.2062 9.0168C50.0364 9.25021 49.7696 9.39152 49.4822 9.40263L44.1315 9.59475C44.1203 9.59475 44.1076 9.59475 44.0965 9.59475C43.5948 9.59475 43.1804 9.19781 43.1613 8.69131C43.1439 8.1737 43.5472 7.74024 44.0648 7.72119L46.9672 7.61639C42.8851 4.49961 38.0535 2.57682 32.9028 2.0338C25.4434 1.24786 18.1222 3.41675 12.2904 8.14353C6.4601 12.8687 2.81617 19.5866 2.03023 27.057C1.40147 33.0397 2.66216 38.9414 5.67733 44.1271ZM55.865 14.9296C55.6047 14.4819 55.0315 14.3311 54.5853 14.5915C54.1376 14.8518 53.9867 15.425 54.2471 15.8728C57.2623 21.0584 58.523 26.9617 57.8942 32.9445C56.2731 48.3648 42.4246 59.5904 27.0217 57.9677C21.8741 57.4246 17.0394 55.5003 12.9588 52.3835L15.8597 52.2803C16.3773 52.2612 16.7806 51.8262 16.7631 51.3086C16.7441 50.7925 16.3154 50.3861 15.793 50.4051L10.4422 50.5988C10.1548 50.6084 9.88808 50.7513 9.71819 50.9847C9.54989 51.2165 9.49591 51.515 9.57529 51.7928L11.044 56.9483C11.1615 57.3595 11.5362 57.6279 11.9442 57.6279C12.03 57.6279 12.1157 57.6168 12.2015 57.5914C12.6984 57.45 12.9874 56.9308 12.8445 56.4339L12.1967 54.1554C16.471 57.3167 21.4915 59.2696 26.8264 59.8317C27.8949 59.9444 28.9588 60 30.0194 60C36.8515 60 43.4281 57.6787 48.8122 53.3155C55.0315 48.2743 58.9183 41.1087 59.7567 33.1413C60.4267 26.7585 59.0819 20.4614 55.865 14.9296ZM13.1573 31.6314C12.673 31.444 7.61123 29.1624 7.53343 29.129C7.05868 28.9226 6.80623 28.3574 7.03804 27.862L12.7921 15.6029C13.0112 15.1376 13.5654 14.936 14.0322 15.1519L19.5401 17.6955C19.5639 17.7067 19.5862 17.7178 19.6084 17.7305C20.6817 18.3354 21.8122 18.0687 23.2428 17.7305C25.1338 17.2827 27.4615 16.7334 30.1909 18.3275C33.9443 16.022 36.8261 17.1986 38.9569 18.0703C40.524 18.7117 41.4561 19.0499 42.3849 18.5672C42.3849 18.5672 46.5925 16.311 46.6004 16.3078C47.0847 16.0474 47.7182 16.2856 47.9151 16.7953L52.9118 29.6975C53.0944 30.169 52.8705 30.7009 52.4053 30.8994L47.2117 33.1159C47.3117 33.8066 47.199 34.5306 46.8418 35.1816C46.4083 35.9691 45.6906 36.5392 44.8221 36.7868C44.5776 36.8567 44.3283 36.8964 44.0806 36.9091C44.168 37.5839 44.0505 38.2889 43.7012 38.924C43.0946 40.0291 41.9514 40.6531 40.7733 40.6531C40.659 40.6531 40.5431 40.6467 40.4288 40.634C40.4574 41.2278 40.3303 41.8359 40.0255 42.3901C39.4698 43.3999 38.4663 44.0064 37.3977 44.1033C37.5073 44.8067 37.3946 45.5497 37.0262 46.2198C36.4213 47.3233 35.2765 47.9488 34.0999 47.9488C33.5569 47.9488 33.006 47.8171 32.4979 47.536L31.4357 46.9517C30.7958 47.8075 29.7939 48.287 28.7635 48.287C28.2331 48.287 27.6965 48.16 27.1963 47.8917C26.458 47.4979 25.9309 46.8628 25.6546 46.134C25.5387 46.1848 25.4196 46.2293 25.2974 46.2658C24.3447 46.5548 23.2777 46.3944 22.4505 45.8308C21.9551 45.4942 21.5566 45.0194 21.3057 44.4748C21.3533 44.5764 20.1593 44.8543 20.0784 44.8622C19.4099 44.9384 18.7272 44.8098 18.1334 44.4907C17.3506 44.0715 16.7774 43.3697 16.5186 42.5155C16.3693 42.0233 16.336 41.5168 16.4122 41.0262C16.3821 41.0262 16.3519 41.0278 16.3217 41.0278C15.7914 41.0278 15.2547 40.9023 14.7546 40.634C13.1335 39.7655 12.519 37.7395 13.3875 36.1152L14.1893 34.6116C13.9829 34.1321 13.8861 33.6081 13.7988 33.1302C13.6336 32.2173 13.5161 31.7711 13.1573 31.6314ZM17.6142 38.3857C17.6142 38.3857 19.1384 35.5309 19.14 35.5293C19.5131 34.8307 19.24 33.9209 18.5414 33.5494C17.8396 33.1731 16.9362 33.4462 16.5615 34.1496L15.0388 36.9996C14.6593 37.7125 14.9277 38.6001 15.639 38.9811C16.3471 39.3606 17.2331 39.0939 17.6142 38.3857ZM20.9961 42.2377C20.9961 42.2377 23.0586 38.3778 23.0602 38.3746C23.4333 37.676 23.1602 36.7662 22.4616 36.3947C21.7646 36.0231 20.8596 36.2931 20.4848 36.9885L18.4176 40.8563C18.0381 41.5692 18.3064 42.4583 19.0177 42.8378C19.3591 43.022 19.7545 43.0601 20.1308 42.9458C20.5055 42.8315 20.8135 42.5806 20.9961 42.2377ZM25.6213 43.7635C25.6213 43.7635 27.2884 40.6419 27.29 40.6404C27.6615 39.9417 27.3885 39.0304 26.6914 38.6588C25.9896 38.2857 25.0862 38.5588 24.7115 39.259L23.0427 42.3837C22.6617 43.095 22.9316 43.9842 23.6413 44.3637C24.3415 44.7384 25.2481 44.4621 25.6213 43.7635ZM30.0591 45.6386C30.0591 45.6386 31.5166 42.9077 31.5182 42.9045C31.8898 42.2107 31.6151 41.2945 30.9212 40.9246C30.221 40.5499 29.3144 40.8245 28.9413 41.5247L27.4805 44.2573C27.0995 44.9702 27.3694 45.8578 28.0807 46.2388C28.7904 46.6199 29.678 46.35 30.0591 45.6386ZM34.8081 43.3269L34.7922 43.3189L33.5379 42.6282C33.4887 43.0299 33.3664 43.4221 33.1695 43.7889L32.3534 45.3179L33.4013 45.8943C34.1079 46.2833 34.9986 46.0229 35.386 45.3163C35.7734 44.6114 35.5146 43.719 34.8081 43.3269ZM30.6926 20.2344C30.0194 20.6996 29.3382 21.2807 28.6666 21.9603C27.1503 23.4957 25.2767 24.9469 23.0872 26.2869C25.3196 28.6337 27.7203 27.6604 30.4608 26.5489C31.9517 25.9456 33.4759 25.3279 34.9621 25.3279C35.7369 25.3279 36.5006 25.4947 37.2437 25.9202L45.5398 30.6533C45.8923 30.855 46.1955 31.1106 46.4448 31.4059L50.8382 29.5308L46.5528 18.4593L43.2582 20.2249C41.5053 21.1378 39.8492 20.4598 38.2488 19.8057C36.1053 18.9276 33.8904 18.021 30.6926 20.2344ZM9.32602 27.8795C10.7344 28.5146 13.3558 29.6975 13.8353 29.8848C15.0388 30.3516 15.3802 31.4631 15.5691 32.4062C16.5837 31.4535 18.1318 31.2027 19.4242 31.8949C20.2038 32.3109 20.7786 33.0127 21.0374 33.8669C21.0914 34.0464 21.1295 34.2258 21.1549 34.4052C21.9011 34.2639 22.6664 34.3782 23.3428 34.7402C24.124 35.1562 24.6972 35.8564 24.9576 36.7122C24.9639 36.7329 24.9687 36.7551 24.975 36.7757C24.9941 36.7694 25.0147 36.763 25.0338 36.7567C25.888 36.4979 26.7899 36.5852 27.5726 37.0044C28.3538 37.422 28.927 38.1222 29.1874 38.978C29.1937 38.9986 29.1985 39.0192 29.2049 39.0415C29.2239 39.0351 29.243 39.0272 29.2636 39.0224C30.1178 38.762 31.0197 38.8509 31.8024 39.2701C32.1787 39.4718 32.5074 39.7385 32.7742 40.0576L36.399 42.063C37.1056 42.452 37.9963 42.1932 38.3837 41.4866C38.7696 40.7848 38.5076 39.8909 37.7994 39.494L32.6805 36.6074C32.2296 36.3534 32.0692 35.7818 32.3232 35.3309C32.5773 34.8799 33.1473 34.7196 33.5982 34.9736L40.0747 38.5985C40.7813 38.9875 41.672 38.7271 42.061 38.0205C42.4452 37.3203 42.1833 36.4264 41.4767 36.0279C41.4561 36.0168 36.3577 33.1286 36.3577 33.1286C35.9068 32.8746 35.748 32.303 36.0021 31.8521C36.2561 31.4011 36.8277 31.2408 37.2786 31.4964L43.2248 34.8593C43.5535 35.0451 43.9393 35.0895 44.3109 34.9831C44.6951 34.8736 45.0111 34.6227 45.2 34.2766C45.5827 33.5811 45.3191 32.6856 44.6125 32.2824L36.3165 27.5476C34.9335 26.7585 33.187 27.4667 31.1626 28.2875C29.6288 28.9099 27.9077 29.607 26.1627 29.607C24.378 29.607 22.5696 28.8766 20.9119 26.5886C20.7548 26.3727 20.6976 26.1012 20.7532 25.8408C20.8087 25.5804 20.9723 25.3565 21.2041 25.2247C23.6588 23.8164 25.7213 22.2747 27.3361 20.6408C27.7171 20.255 28.1045 19.8962 28.4919 19.5675C26.7438 18.8292 25.245 19.1833 23.6731 19.5548C22.0758 19.9327 20.4245 20.3233 18.724 19.3833L14.0909 17.243L9.13866 27.7953C9.19741 27.8207 9.25933 27.8493 9.32602 27.8795Z" fill="#050B20"/>
</svg>
